<mxfile host="app.diagrams.net" modified="2022-05-27T09:58:38.473Z" agent="5.0 (Windows NT 10.0; Win64; x64) AppleWebKit/537.36 (KHTML, like Gecko) Chrome/100.0.4896.127 Safari/537.36" etag="QAVdSZJVlp9XBmN0wEDa" version="18.0.1" type="github">
  <diagram id="4glmwyTMUs3QacqAsLoW" name="Page-1">
    <mxGraphModel dx="1278" dy="491" grid="1" gridSize="10" guides="1" tooltips="1" connect="1" arrows="1" fold="1" page="1" pageScale="1" pageWidth="1169" pageHeight="1654" math="0" shadow="0">
      <root>
        <mxCell id="0" />
        <mxCell id="1" parent="0" />
        <mxCell id="wbWp9Qs8QvZJ5UmtiSgc-13" style="edgeStyle=orthogonalEdgeStyle;rounded=0;orthogonalLoop=1;jettySize=auto;html=1;exitX=0.5;exitY=1;exitDx=0;exitDy=0;" edge="1" parent="1" source="wbWp9Qs8QvZJ5UmtiSgc-1" target="wbWp9Qs8QvZJ5UmtiSgc-2">
          <mxGeometry relative="1" as="geometry" />
        </mxCell>
        <mxCell id="wbWp9Qs8QvZJ5UmtiSgc-1" value="读取需要测量的图像" style="rounded=1;whiteSpace=wrap;html=1;" vertex="1" parent="1">
          <mxGeometry x="130" y="40" width="120" height="60" as="geometry" />
        </mxCell>
        <mxCell id="wbWp9Qs8QvZJ5UmtiSgc-14" style="edgeStyle=orthogonalEdgeStyle;rounded=0;orthogonalLoop=1;jettySize=auto;html=1;exitX=0.5;exitY=1;exitDx=0;exitDy=0;entryX=0.5;entryY=0;entryDx=0;entryDy=0;" edge="1" parent="1" source="wbWp9Qs8QvZJ5UmtiSgc-2" target="wbWp9Qs8QvZJ5UmtiSgc-6">
          <mxGeometry relative="1" as="geometry" />
        </mxCell>
        <mxCell id="wbWp9Qs8QvZJ5UmtiSgc-2" value="设定初始姿态" style="rounded=1;whiteSpace=wrap;html=1;" vertex="1" parent="1">
          <mxGeometry x="130" y="130" width="120" height="60" as="geometry" />
        </mxCell>
        <mxCell id="wbWp9Qs8QvZJ5UmtiSgc-19" style="edgeStyle=orthogonalEdgeStyle;rounded=0;orthogonalLoop=1;jettySize=auto;html=1;exitX=0.5;exitY=1;exitDx=0;exitDy=0;entryX=0.5;entryY=0;entryDx=0;entryDy=0;" edge="1" parent="1" source="wbWp9Qs8QvZJ5UmtiSgc-3" target="wbWp9Qs8QvZJ5UmtiSgc-9">
          <mxGeometry relative="1" as="geometry" />
        </mxCell>
        <mxCell id="wbWp9Qs8QvZJ5UmtiSgc-3" value="将结果转换到世界坐标系" style="rounded=1;whiteSpace=wrap;html=1;" vertex="1" parent="1">
          <mxGeometry x="400" y="130" width="120" height="60" as="geometry" />
        </mxCell>
        <mxCell id="wbWp9Qs8QvZJ5UmtiSgc-18" style="edgeStyle=orthogonalEdgeStyle;rounded=0;orthogonalLoop=1;jettySize=auto;html=1;exitX=0.5;exitY=1;exitDx=0;exitDy=0;entryX=0.5;entryY=0;entryDx=0;entryDy=0;" edge="1" parent="1" source="wbWp9Qs8QvZJ5UmtiSgc-4" target="wbWp9Qs8QvZJ5UmtiSgc-3">
          <mxGeometry relative="1" as="geometry" />
        </mxCell>
        <mxCell id="wbWp9Qs8QvZJ5UmtiSgc-4" value="测量目标矩形框中矩阵的直边数据" style="rounded=1;whiteSpace=wrap;html=1;" vertex="1" parent="1">
          <mxGeometry x="400" y="40" width="120" height="60" as="geometry" />
        </mxCell>
        <mxCell id="wbWp9Qs8QvZJ5UmtiSgc-17" style="edgeStyle=orthogonalEdgeStyle;rounded=0;orthogonalLoop=1;jettySize=auto;html=1;exitX=0.5;exitY=1;exitDx=0;exitDy=0;entryX=0.5;entryY=0;entryDx=0;entryDy=0;" edge="1" parent="1" source="wbWp9Qs8QvZJ5UmtiSgc-5" target="wbWp9Qs8QvZJ5UmtiSgc-4">
          <mxGeometry relative="1" as="geometry" />
        </mxCell>
        <mxCell id="wbWp9Qs8QvZJ5UmtiSgc-5" value="在图像中生成测量矩形框" style="rounded=1;whiteSpace=wrap;html=1;" vertex="1" parent="1">
          <mxGeometry x="130" y="390" width="120" height="60" as="geometry" />
        </mxCell>
        <mxCell id="wbWp9Qs8QvZJ5UmtiSgc-15" style="edgeStyle=orthogonalEdgeStyle;rounded=0;orthogonalLoop=1;jettySize=auto;html=1;exitX=0.5;exitY=1;exitDx=0;exitDy=0;" edge="1" parent="1" source="wbWp9Qs8QvZJ5UmtiSgc-6" target="wbWp9Qs8QvZJ5UmtiSgc-7">
          <mxGeometry relative="1" as="geometry" />
        </mxCell>
        <mxCell id="wbWp9Qs8QvZJ5UmtiSgc-6" value="对需要测量的图像进行阈值分割" style="rounded=1;whiteSpace=wrap;html=1;" vertex="1" parent="1">
          <mxGeometry x="130" y="220" width="120" height="60" as="geometry" />
        </mxCell>
        <mxCell id="wbWp9Qs8QvZJ5UmtiSgc-16" style="edgeStyle=orthogonalEdgeStyle;rounded=0;orthogonalLoop=1;jettySize=auto;html=1;exitX=0.5;exitY=1;exitDx=0;exitDy=0;entryX=0.5;entryY=0;entryDx=0;entryDy=0;" edge="1" parent="1" source="wbWp9Qs8QvZJ5UmtiSgc-7" target="wbWp9Qs8QvZJ5UmtiSgc-5">
          <mxGeometry relative="1" as="geometry" />
        </mxCell>
        <mxCell id="wbWp9Qs8QvZJ5UmtiSgc-7" value="通过分割边界产生闭合矩形" style="rounded=1;whiteSpace=wrap;html=1;" vertex="1" parent="1">
          <mxGeometry x="130" y="300" width="120" height="60" as="geometry" />
        </mxCell>
        <mxCell id="wbWp9Qs8QvZJ5UmtiSgc-20" style="edgeStyle=orthogonalEdgeStyle;rounded=0;orthogonalLoop=1;jettySize=auto;html=1;exitX=0.5;exitY=1;exitDx=0;exitDy=0;entryX=0.5;entryY=0;entryDx=0;entryDy=0;" edge="1" parent="1" source="wbWp9Qs8QvZJ5UmtiSgc-9" target="wbWp9Qs8QvZJ5UmtiSgc-11">
          <mxGeometry relative="1" as="geometry" />
        </mxCell>
        <mxCell id="wbWp9Qs8QvZJ5UmtiSgc-9" value="计算刻度尺上刻度之间的距离" style="rounded=1;whiteSpace=wrap;html=1;" vertex="1" parent="1">
          <mxGeometry x="400" y="220" width="120" height="60" as="geometry" />
        </mxCell>
        <mxCell id="wbWp9Qs8QvZJ5UmtiSgc-21" style="edgeStyle=orthogonalEdgeStyle;rounded=0;orthogonalLoop=1;jettySize=auto;html=1;exitX=0.5;exitY=1;exitDx=0;exitDy=0;entryX=0.5;entryY=0;entryDx=0;entryDy=0;" edge="1" parent="1" source="wbWp9Qs8QvZJ5UmtiSgc-11" target="wbWp9Qs8QvZJ5UmtiSgc-12">
          <mxGeometry relative="1" as="geometry" />
        </mxCell>
        <mxCell id="wbWp9Qs8QvZJ5UmtiSgc-11" value="计算平均值,标准差,误差百分比" style="rounded=1;whiteSpace=wrap;html=1;" vertex="1" parent="1">
          <mxGeometry x="400" y="300" width="120" height="60" as="geometry" />
        </mxCell>
        <mxCell id="wbWp9Qs8QvZJ5UmtiSgc-12" value="显示结果,完成测量" style="rounded=1;whiteSpace=wrap;html=1;" vertex="1" parent="1">
          <mxGeometry x="400" y="390" width="120" height="60" as="geometry" />
        </mxCell>
      </root>
    </mxGraphModel>
  </diagram>
</mxfile>
